<svg width="35" height="34" viewBox="0 0 35 34" fill="none" xmlns="http://www.w3.org/2000/svg">
<circle cx="17.5" cy="17" r="17" fill="#FCFCFC"/>
<path fill-rule="evenodd" clip-rule="evenodd" d="M13.6262 17.6721C13.262 15.5889 14.7069 13.5565 16.8176 13.1728C17.217 13.1023 17.7183 13.1023 18.1255 13.1728C20.2519 13.5448 21.7046 15.5771 21.3405 17.6721C20.9685 19.7985 18.9361 21.2513 16.8411 20.8871C15.1964 20.6012 13.912 19.3168 13.6262 17.6721ZM19.8328 17.0299C19.8328 15.9491 19.0301 14.9623 17.9728 14.7391C17.174 14.5707 16.4182 14.7979 15.8347 15.3813C15.2552 15.9648 15.0241 16.7206 15.1925 17.5194C15.4157 18.5767 16.4025 19.3795 17.4833 19.3795C18.7521 19.3795 19.8328 18.2987 19.8328 17.0299Z" fill="#7BC950"/>
<path fill-rule="evenodd" clip-rule="evenodd" d="M12.6981 11.254C13.8611 10.6118 15.1769 10.1849 16.4456 10.0401C17.0095 9.97349 18.1255 9.99306 18.756 10.0753C19.5078 10.1771 20.2871 10.3847 21.0859 10.694C23.5373 11.6456 25.832 13.721 27.1712 16.1919C27.4884 16.7793 27.5433 16.9594 27.4728 17.214C27.3788 17.5703 26.7287 18.6668 26.204 19.356C24.9039 21.0633 23.2084 22.4339 21.411 23.2288C20.8862 23.4637 19.919 23.777 19.4021 23.8828C16.8176 24.4114 14.1039 23.8279 11.7465 22.2342C10.141 21.1495 8.72737 19.587 7.78364 17.8523C7.53302 17.3902 7.51736 17.3471 7.50561 17.0691C7.48995 16.7793 7.49387 16.7676 7.69749 16.3838C8.79786 14.2849 10.6501 12.3857 12.6981 11.254ZM22.6993 13.3803C21.3287 12.3504 19.7898 11.7356 18.2273 11.5908C15.2787 11.3166 12.4161 12.6715 10.2546 15.3618C9.9648 15.7259 9.5458 16.3329 9.29909 16.7441L9.13463 17.0299L9.29909 17.3119C9.88648 18.3065 10.6775 19.2816 11.5194 20.053C14.006 22.3242 17.1309 23.0604 20.0874 22.0736C22.2607 21.3492 24.3244 19.587 25.6675 17.3119L25.832 17.0299L25.6675 16.7441C24.9079 15.4597 23.8192 14.2261 22.6993 13.3803Z" fill="#7BC950"/>
</svg>
