<svg width="16" height="16" viewBox="0 0 16 16" fill="none" xmlns="http://www.w3.org/2000/svg">
<circle cx="8.00002" cy="8" r="5" transform="rotate(-45 8.00002 8)" fill="#FCFCFC"/>
<path fill-rule="evenodd" clip-rule="evenodd" d="M4.2082 4.73461C3.73434 5.30794 3.45527 5.80804 3.23837 6.47256C2.98279 7.2614 2.93444 8.14972 3.10022 9.00073C3.12923 9.14579 3.2066 9.4221 3.27291 9.61551C3.51053 10.3173 3.84348 10.8713 4.34773 11.4142C4.91554 12.0235 5.59801 12.4628 6.38823 12.7281C6.9436 12.916 7.39674 12.9878 7.9977 12.9892C8.60695 12.9878 9.06009 12.9132 9.61408 12.7239C10.0009 12.5913 10.2302 12.4863 10.5604 12.2888C11.4253 11.7721 12.0856 11.0454 12.5208 10.1322C12.6534 9.85313 12.8316 9.31848 12.8924 9.01179C13.0306 8.32379 13.0209 7.55705 12.8662 6.86076C12.8095 6.60518 12.6382 6.11336 12.5194 5.86469C11.9295 4.62547 10.892 3.70123 9.60717 3.2702C9.09048 3.09612 8.62629 3.016 8.07921 3.00771C7.47134 2.99665 6.96571 3.07678 6.38133 3.27434C5.7707 3.48157 5.28026 3.75373 4.78567 4.16542C4.63232 4.2939 4.31043 4.61027 4.2082 4.73461ZM5.69609 7.59573C5.72096 7.58744 6.15476 7.57915 6.65901 7.57777L7.57634 7.57777L7.57772 6.65906C7.57772 6.0208 7.58739 5.71825 7.6095 5.66575C7.67443 5.50687 7.85126 5.38806 8.00876 5.39635C8.17039 5.40326 8.32374 5.5124 8.38591 5.66575C8.40801 5.71825 8.41768 6.0208 8.41768 6.65906L8.41907 7.57777L9.33639 7.57777C9.97604 7.57915 10.2786 7.58882 10.3311 7.61093C10.4844 7.6731 10.5936 7.82644 10.6005 7.98808C10.6088 8.14558 10.49 8.32241 10.3311 8.38734C10.2786 8.40945 9.97604 8.41912 9.33778 8.41912L8.41907 8.4205L8.41907 9.33783C8.41769 9.97747 8.40802 10.28 8.38591 10.3325C8.27401 10.6074 7.92725 10.689 7.7214 10.4914C7.58187 10.3574 7.58048 10.3505 7.57634 9.35164L7.57496 8.42188L6.65763 8.41912C6.01937 8.41912 5.71682 8.40944 5.66432 8.38734C5.464 8.30583 5.35071 8.07926 5.41012 7.88447C5.4488 7.76013 5.57176 7.63718 5.69609 7.59573Z" fill="#7BC950"/>
</svg>
