<svg width="11" height="10" viewBox="0 0 11 10" fill="none" xmlns="http://www.w3.org/2000/svg">
<circle cx="5.5" cy="5" r="5" fill="#FCFCFC"/>
<path fill-rule="evenodd" clip-rule="evenodd" d="M5.12776 0.00979167C4.38728 0.0801271 3.83632 0.236428 3.21307 0.552938C2.47455 0.930014 1.81222 1.52396 1.32769 2.24294C1.24563 2.36603 1.10496 2.61611 1.01509 2.79976C0.686855 3.46404 0.530554 4.0912 0.503202 4.83168C0.473895 5.66398 0.645826 6.45721 1.01704 7.20355C1.27689 7.72911 1.54651 8.10032 1.97048 8.52624C2.40226 8.95607 2.77543 9.22374 3.30099 9.48163C3.6683 9.66138 3.9047 9.7493 4.27787 9.84308C5.25475 10.0893 6.23554 10.0424 7.18898 9.70436C7.48009 9.60081 7.98416 9.34878 8.24401 9.17489C8.82818 8.78609 9.36351 8.23709 9.74645 7.63533C9.88712 7.41455 10.1138 6.94565 10.2056 6.6858C10.6647 5.39241 10.5846 4.00524 9.9809 2.79195C9.73864 2.30351 9.46706 1.91862 9.08608 1.52591C8.66407 1.08827 8.24987 0.787389 7.69696 0.513862C7.11864 0.228613 6.5794 0.0742658 5.93857 0.015653C5.73929 -0.00193091 5.28797 -0.00583843 5.12776 0.00979167ZM4.15674 3.08501C4.18018 3.09674 4.49278 3.39762 4.85032 3.7532L5.49897 4.40185L6.14958 3.7532C6.60089 3.30188 6.82167 3.09478 6.87442 3.07329C7.03268 3.00686 7.24173 3.04789 7.34723 3.16512C7.45664 3.2843 7.4879 3.4699 7.42343 3.6223C7.40194 3.67505 7.19484 3.89583 6.74352 4.34714L6.09487 4.99775L6.74352 5.6464C7.19484 6.09967 7.40194 6.32045 7.42343 6.3732C7.4879 6.52559 7.45664 6.7112 7.34723 6.83038C7.24173 6.9476 7.03268 6.98863 6.87442 6.9222C6.82167 6.90071 6.60089 6.69361 6.14958 6.24229L5.49897 5.59365L4.85032 6.24229C4.39705 6.69361 4.17628 6.90071 4.12352 6.9222C3.85 7.03748 3.54716 6.84991 3.5413 6.56467C3.53739 6.37124 3.5413 6.36538 4.24466 5.65617L4.90112 4.99775L4.25443 4.34714C3.80311 3.89583 3.59601 3.67505 3.57452 3.6223C3.4905 3.42301 3.57061 3.1827 3.75036 3.08697C3.86563 3.0264 4.03951 3.0264 4.15674 3.08501Z" fill="#9A48D0"/>
</svg>
