<svg width="25" height="23" viewBox="0 0 25 23" fill="none" xmlns="http://www.w3.org/2000/svg">
<path fill-rule="evenodd" clip-rule="evenodd" d="M0.435883 1.40817C0.772913 0.846457 1.48605 0.318932 2.14057 0.147974C2.50202 0.0502846 3.20539 0.0502846 3.57173 0.147974C4.0846 0.279856 4.5242 0.533849 4.90519 0.924609C6.0384 2.07246 6.02863 3.82111 4.88077 4.95432C4.29463 5.53069 3.68407 5.78468 2.87325 5.78468C2.05753 5.78468 1.44209 5.53069 0.865719 4.9592C0.484728 4.57821 0.289348 4.2656 0.108622 3.73319C0.0353547 3.52804 0.0158167 3.33266 0.0207012 2.90283C0.0255857 2.27761 0.118391 1.94058 0.435883 1.40817ZM3.80618 3.96765C4.52909 3.28382 4.3679 2.13108 3.48381 1.67194C3.2347 1.54006 2.68275 1.50586 2.41899 1.60355C1.2174 2.05293 1.14413 3.65993 2.30664 4.2021C2.78532 4.42191 3.43008 4.32422 3.80618 3.96765Z" fill="#FCFCFC"/>
<path d="M8.51972 2.67326C8.62229 2.42415 8.78837 2.27761 9.03259 2.219C9.1254 2.19946 12.6276 2.18481 16.8185 2.18481C23.9401 2.19458 24.4481 2.19946 24.5946 2.27761C25.1905 2.60487 25.0928 3.45477 24.4383 3.63062C24.1648 3.70388 9.27682 3.70388 9.00817 3.63062C8.75906 3.56223 8.56368 3.36197 8.48553 3.10309C8.4318 2.92237 8.43668 2.87352 8.51972 2.67326Z" fill="#FCFCFC"/>
<path fill-rule="evenodd" clip-rule="evenodd" d="M2.26268 8.69095C1.16856 8.93029 0.294233 9.80462 0.0646614 10.889C-0.179563 12.0466 0.279579 13.2042 1.24671 13.8587C2.95628 15.0261 5.25199 14.0932 5.68183 12.0564C5.76975 11.6314 5.76975 11.3677 5.68183 10.9427C5.3448 9.35524 3.81595 8.34904 2.26268 8.69095ZM3.49358 10.2589C3.97226 10.4884 4.25556 10.9476 4.25556 11.4995C4.25556 12.2859 3.65476 12.8867 2.87813 12.8867C2.08196 12.8818 1.48605 12.2908 1.48605 11.4995C1.48116 10.4494 2.5411 9.79973 3.49358 10.2589Z" fill="#FCFCFC"/>
<path d="M8.47087 11.4995C8.47087 11.226 8.56856 11.055 8.83233 10.8743L8.99352 10.7669H16.7159C24.1452 10.7669 24.4481 10.7717 24.6092 10.8597C24.8144 10.9671 25 11.27 25 11.4995C25 11.7291 24.8144 12.0319 24.6092 12.1394C24.4481 12.2273 24.1452 12.2322 16.7159 12.2322H8.99352L8.83233 12.1199C8.56856 11.944 8.47087 11.7731 8.47087 11.4995Z" fill="#FCFCFC"/>
<path fill-rule="evenodd" clip-rule="evenodd" d="M2.14057 17.2925C1.64235 17.4244 1.26136 17.6491 0.865718 18.0399C0.484728 18.4209 0.289348 18.7335 0.108622 19.2659C-0.0379131 19.6908 -0.0183751 20.5505 0.147698 20.9852C0.504266 21.9328 1.24671 22.6215 2.16499 22.856C2.5411 22.9488 3.19562 22.9488 3.57173 22.8511C4.82704 22.5287 5.7551 21.3467 5.7551 20.0718C5.7551 18.8019 4.82704 17.6149 3.5815 17.2877C3.22004 17.1949 2.50202 17.1949 2.14057 17.2925ZM3.43496 18.797C4.51932 19.305 4.54863 20.7557 3.48381 21.332C3.20051 21.4883 2.54598 21.4834 2.25291 21.3271C1.74981 21.0634 1.48605 20.6287 1.48605 20.0718C1.49093 19.4955 1.74493 19.0803 2.24803 18.8312C2.63879 18.6358 3.06862 18.6211 3.43496 18.797Z" fill="#FCFCFC"/>
<path d="M8.48553 19.9058C8.56368 19.642 8.7151 19.471 8.95444 19.388C9.12051 19.3294 10.3172 19.3196 16.6964 19.3147C21.9863 19.3147 24.3015 19.3294 24.4383 19.3685C25.0928 19.5443 25.1905 20.3942 24.5946 20.7215C24.4481 20.7996 23.9401 20.8045 16.9406 20.8191C12.8181 20.8289 9.33055 20.8191 9.1889 20.8045C8.85186 20.7654 8.63695 20.614 8.51972 20.3307C8.43668 20.1304 8.4318 20.0718 8.48553 19.9058Z" fill="#FCFCFC"/>
</svg>
