<svg width="24" height="25" viewBox="0 0 24 25" fill="none" xmlns="http://www.w3.org/2000/svg">
<path fill-rule="evenodd" clip-rule="evenodd" d="M0.897065 1.39276C1.31977 0.970061 1.8411 0.683564 2.44227 0.552057C2.66301 0.500394 3.36282 0.491001 5.72994 0.495697L8.73581 0.505091L9.11155 0.636598C10.0791 0.979455 10.7507 1.65578 11.0982 2.63738L11.225 2.99433V9.2409L11.0982 9.59785C10.7507 10.5795 10.0791 11.2558 9.11155 11.5986L8.73581 11.7301H2.48924L2.13229 11.6033C1.15068 11.2558 0.474364 10.5842 0.131507 9.61664L0 9.2409V2.99433L0.131507 2.61859C0.30998 2.12544 0.544814 1.74501 0.897065 1.39276ZM9.59061 2.91448C9.42622 2.57632 9.15382 2.30392 8.81565 2.13953L8.54794 2.00803L5.68297 1.99863C3.02935 1.98924 2.79922 1.99394 2.57378 2.06908C2.07123 2.24756 1.63444 2.72662 1.52642 3.21977C1.48885 3.38885 1.47945 4.3094 1.48885 6.25852L1.50294 9.05304L1.62975 9.31605C1.79413 9.64482 2.08532 9.93601 2.41879 10.1004L2.6771 10.2272H8.54794L8.81096 10.1004C9.13973 9.93601 9.43092 9.64482 9.5953 9.31135L9.72211 9.05304V3.18219L9.59061 2.91448Z" fill="black"/>
<path fill-rule="evenodd" clip-rule="evenodd" d="M13.672 1.39276C14.0947 0.970061 14.616 0.683564 15.2172 0.552057C15.438 0.500394 16.1378 0.491001 18.5049 0.495697L21.5108 0.505091L21.8865 0.636598C22.854 0.979455 23.5256 1.65578 23.8732 2.63738L24 2.99433V9.2409L23.8732 9.59785C23.5256 10.5795 22.854 11.2558 21.8865 11.5986L21.5108 11.7301H15.2642L14.9072 11.6033C13.9256 11.2558 13.2493 10.5842 12.9065 9.61664L12.775 9.2409V2.99433L12.9065 2.61859C13.0849 2.12544 13.3198 1.74501 13.672 1.39276ZM22.3656 2.91448C22.2012 2.57632 21.9288 2.30392 21.5906 2.13953L21.3229 2.00803L18.4579 1.99863C15.8043 1.98924 15.5742 1.99394 15.3487 2.06908C14.8462 2.24756 14.4094 2.72662 14.3014 3.21977C14.2638 3.38885 14.2544 4.3094 14.2638 6.25852L14.2779 9.05304L14.4047 9.31605C14.5691 9.64482 14.8603 9.93601 15.1937 10.1004L15.4521 10.2272H21.3229L21.5859 10.1004C21.9147 9.93601 22.2059 9.64482 22.3703 9.31135L22.4971 9.05304V3.18219L22.3656 2.91448Z" fill="black"/>
<path fill-rule="evenodd" clip-rule="evenodd" d="M2.44227 13.327C1.8411 13.4585 1.31977 13.745 0.897065 14.1677C0.544814 14.52 0.30998 14.9004 0.131507 15.3935L0 15.7693V22.0159L0.131507 22.3916C0.474364 23.3591 1.15068 24.0307 2.13229 24.3783L2.48924 24.5051H8.73581L9.11155 24.3736C10.0791 24.0307 10.7507 23.3544 11.0982 22.3728L11.225 22.0159V15.7693L11.0982 15.4123C10.7507 14.4307 10.0791 13.7544 9.11155 13.4115L8.73581 13.28L5.72994 13.2706C3.36282 13.266 2.66301 13.2753 2.44227 13.327ZM8.81565 14.9145C9.15382 15.0789 9.42622 15.3513 9.59061 15.6894L9.72211 15.9571V21.828L9.5953 22.0863C9.43092 22.4198 9.13973 22.711 8.81096 22.8753L8.54794 23.0022H2.6771L2.41879 22.8753C2.08532 22.711 1.79413 22.4198 1.62975 22.091L1.50294 21.828L1.48885 19.0335C1.47945 17.0843 1.48885 16.1638 1.52642 15.9947C1.63444 15.5016 2.07123 15.0225 2.57378 14.844C2.79922 14.7689 3.02935 14.7642 5.68297 14.7736L8.54794 14.783L8.81565 14.9145Z" fill="black"/>
<path fill-rule="evenodd" clip-rule="evenodd" d="M17.4012 13.3505C17.5937 13.3223 17.7863 13.2894 17.8239 13.28C18.0211 13.2284 19.2423 13.3082 19.6086 13.3928C21.816 13.8953 23.4881 15.6331 23.9342 17.8828C23.9718 18.0707 24 18.5027 24 18.8926C24 19.6299 23.9436 20.001 23.737 20.6397C23.1217 22.5419 21.5014 23.9885 19.5147 24.4159C19.0168 24.5239 17.8614 24.538 17.3777 24.4393C16.9033 24.3454 16.2881 24.1388 15.8888 23.9368C14.5362 23.2558 13.4935 22.0487 13.038 20.6397C12.8266 19.9916 12.775 19.6346 12.775 18.8691C12.7796 17.8828 12.9346 17.2112 13.3526 16.3798C14.1417 14.8018 15.7198 13.6229 17.4012 13.3505ZM21.2994 15.9806C20.6982 15.3795 19.9327 14.9755 19.1155 14.8299C17.7628 14.5951 16.4571 15.0037 15.4802 15.9759C13.8552 17.5869 13.8552 20.1982 15.4802 21.8092C17.1053 23.4202 19.6932 23.4202 21.3041 21.8092C22.9151 20.1982 22.9151 17.5916 21.2994 15.9806Z" fill="black"/>
</svg>
